<?xml version="1.0" encoding="UTF-8" standalone="no"?>
<!DOCTYPE svg PUBLIC "-//W3C//DTD SVG 1.1//EN" "http://www.w3.org/Graphics/SVG/1.1/DTD/svg11.dtd">
<svg width="100%" height="100%" viewBox="0 0 448 100" version="1.1" xmlns="http://www.w3.org/2000/svg" xmlns:xlink="http://www.w3.org/1999/xlink" xml:space="preserve" xmlns:serif="http://www.serif.com/" style="fill-rule:evenodd;clip-rule:evenodd;stroke-linejoin:round;stroke-miterlimit:2;">
    <g transform="matrix(1,0,0,1,-2996,-1484)">
        <g id="logo" transform="matrix(0.56,0,0,0.284091,1419.04,1047.64)">
            <rect x="2816" y="1536" width="800" height="352" style="fill:none;"/>
            <clipPath id="_clip1">
                <rect x="2816" y="1536" width="800" height="352"/>
            </clipPath>
            <g clip-path="url(#_clip1)">
                <g transform="matrix(0.429921,0,0,0.476696,2631,1221.14)">
                    <g transform="matrix(2.00009,0,0,3.55572,427.423,644.779)">
                        <path d="M337.44,43.17C335.73,43.17 288.05,43.26 286.41,43.45C269.63,45.35 256.9,56.81 251.27,74.79L249.13,74.79L249.13,46.03L228.92,46.03L228.92,157.05L249.6,157.05L249.6,93.58C249.6,86.86 251.27,80.95 254.29,76.11C260.42,62.63 271.94,53.54 284.66,53.22C286.86,53.16 334.85,53.46 336.64,54.05C355.28,60.15 352.8,97.71 352.65,97.71L352.65,157.06L373.33,157.06L373.33,83.6C373.33,59.35 362.16,43.19 337.43,43.19L337.44,43.17Z" style="fill:rgb(9,49,81);fill-rule:nonzero;"/>
                    </g>
                    <g transform="matrix(2.00009,0,0,3.55572,427.423,644.779)">
                        <path d="M448.71,151.51C426.47,151.51 412.79,132.63 414.5,100.12L499.34,100.12C499.49,97.52 499.56,95.14 499.56,93.29C499.56,62.62 482.92,42.18 449.64,42.18C448.49,42.18 447.36,42.21 446.24,42.26C414.66,43.71 394.49,65.56 394.49,101.38C394.49,137.2 414.57,157.6 447.47,158.63C448.34,158.66 449.23,158.67 450.12,158.67C478.88,158.67 493.15,145.36 498.62,124.2L480.89,119.3C476.36,138.8 464.81,150.22 451.11,151.41C450.32,151.48 449.51,151.51 448.71,151.51ZM447.01,50.49C447.88,50.49 448.74,50.52 449.58,50.57C470.11,51.85 480.31,68.55 480.31,91.62L415.41,91.62C415.41,67.72 428.19,50.49 447.01,50.49Z" style="fill:rgb(9,49,81);fill-rule:nonzero;"/>
                    </g>
                    <g transform="matrix(2.00009,0,0,3.55572,427.423,644.779)">
                        <rect x="523.1" y="4.42" width="21" height="152.62" style="fill:rgb(9,49,81);"/>
                    </g>
                    <g transform="matrix(2.00009,0,0,3.55572,427.423,644.779)">
                        <path d="M85.25,94.4L127.85,47.24L127.85,46.02L115.61,46.02L75.44,93.33L22.12,93.33L22.12,4.42L1.44,4.42L1.44,157.04L22.12,157.04L22.09,101.11L69.2,101.11L119.42,157.04L143.19,157.04L143.19,154.43L85.25,94.4Z" style="fill:rgb(9,49,81);fill-rule:nonzero;"/>
                    </g>
                    <g transform="matrix(2.00009,0,0,3.55572,427.423,644.779)">
                        <path d="M178.75,77.21L177.09,76.97L177.09,45.59L157.12,45.59L157.12,156.61L177.8,156.61L177.8,101.7C177.8,76.74 187.55,61.23 211.56,61.23L217.26,61.23L217.26,44.41L212.98,44.41C195.86,44.41 184.45,52.97 178.75,77.21Z" style="fill:rgb(9,49,81);fill-rule:nonzero;"/>
                    </g>
                </g>
                <g transform="matrix(0.871739,0,0,1.71837,519.233,-386.232)">
                    <g transform="matrix(132.656,0,0,155.719,3220,1269.72)">
                        <path d="M0.324,-0.251C0.324,-0.278 0.322,-0.304 0.318,-0.328C0.314,-0.351 0.308,-0.372 0.3,-0.389C0.291,-0.406 0.281,-0.42 0.269,-0.43C0.257,-0.44 0.243,-0.445 0.227,-0.445C0.21,-0.445 0.196,-0.44 0.185,-0.43C0.173,-0.42 0.163,-0.406 0.156,-0.389C0.148,-0.372 0.142,-0.351 0.139,-0.328C0.135,-0.304 0.133,-0.278 0.133,-0.251C0.133,-0.224 0.135,-0.198 0.139,-0.175C0.142,-0.152 0.148,-0.131 0.156,-0.114C0.163,-0.097 0.173,-0.083 0.185,-0.073C0.196,-0.063 0.21,-0.058 0.227,-0.058C0.243,-0.058 0.257,-0.063 0.27,-0.073C0.282,-0.083 0.292,-0.097 0.3,-0.114C0.308,-0.131 0.314,-0.152 0.318,-0.175C0.322,-0.198 0.324,-0.224 0.324,-0.251ZM0.324,-0.502L0.407,-0.502L0.407,-0C0.407,0.034 0.404,0.066 0.398,0.095C0.391,0.124 0.381,0.149 0.366,0.171C0.351,0.192 0.331,0.209 0.307,0.222C0.282,0.234 0.252,0.24 0.217,0.24C0.183,0.24 0.151,0.233 0.121,0.219C0.09,0.204 0.065,0.185 0.046,0.161L0.099,0.101C0.114,0.119 0.131,0.134 0.152,0.146C0.173,0.157 0.195,0.163 0.22,0.163C0.241,0.163 0.258,0.159 0.271,0.151C0.284,0.142 0.295,0.131 0.303,0.116C0.311,0.101 0.317,0.084 0.32,0.064C0.323,0.044 0.324,0.023 0.324,-0L0.324,-0.079L0.322,-0.079C0.314,-0.052 0.301,-0.029 0.284,-0.011C0.266,0.008 0.24,0.017 0.205,0.017C0.18,0.017 0.157,0.01 0.137,-0.004C0.117,-0.017 0.1,-0.036 0.087,-0.06C0.073,-0.084 0.063,-0.113 0.056,-0.146C0.048,-0.179 0.045,-0.215 0.045,-0.254C0.045,-0.293 0.048,-0.328 0.055,-0.361C0.062,-0.393 0.072,-0.421 0.086,-0.445C0.099,-0.468 0.116,-0.487 0.136,-0.5C0.156,-0.513 0.179,-0.519 0.205,-0.519C0.234,-0.519 0.259,-0.511 0.28,-0.494C0.3,-0.477 0.314,-0.456 0.321,-0.43L0.324,-0.43L0.324,-0.502Z" style="fill:rgb(108,135,156);fill-rule:nonzero;"/>
                    </g>
                    <g transform="matrix(132.656,0,0,155.719,3283.67,1269.72)">
                        <path d="M0.16,-0.398C0.169,-0.44 0.183,-0.471 0.202,-0.49C0.221,-0.509 0.244,-0.519 0.269,-0.519C0.274,-0.519 0.278,-0.519 0.281,-0.518L0.277,-0.429C0.274,-0.43 0.272,-0.43 0.269,-0.431C0.266,-0.431 0.263,-0.431 0.26,-0.431C0.244,-0.431 0.23,-0.426 0.218,-0.416C0.205,-0.405 0.195,-0.392 0.187,-0.375C0.178,-0.358 0.172,-0.339 0.168,-0.319C0.163,-0.298 0.161,-0.276 0.161,-0.254L0.161,-0L0.075,-0L0.075,-0.375C0.075,-0.395 0.075,-0.417 0.074,-0.44C0.073,-0.463 0.072,-0.483 0.071,-0.502L0.152,-0.502C0.154,-0.485 0.156,-0.468 0.157,-0.45C0.158,-0.432 0.158,-0.415 0.158,-0.398L0.16,-0.398Z" style="fill:rgb(108,135,156);fill-rule:nonzero;"/>
                    </g>
                    <g transform="matrix(132.656,0,0,155.719,3320.55,1269.72)">
                        <path d="M0.289,-0C0.286,-0.015 0.284,-0.031 0.283,-0.046C0.282,-0.061 0.281,-0.074 0.281,-0.083L0.279,-0.083C0.272,-0.053 0.259,-0.029 0.24,-0.013C0.221,0.005 0.194,0.013 0.161,0.013C0.147,0.013 0.133,0.01 0.118,0.005C0.103,-0 0.09,-0.009 0.079,-0.021C0.067,-0.033 0.057,-0.048 0.05,-0.067C0.042,-0.086 0.038,-0.109 0.038,-0.136C0.038,-0.172 0.045,-0.202 0.058,-0.225C0.07,-0.248 0.087,-0.266 0.107,-0.279C0.126,-0.292 0.148,-0.3 0.172,-0.305C0.196,-0.31 0.219,-0.312 0.241,-0.312L0.274,-0.312L0.274,-0.334C0.274,-0.373 0.267,-0.402 0.252,-0.42C0.237,-0.437 0.216,-0.446 0.191,-0.446C0.172,-0.446 0.155,-0.441 0.139,-0.432C0.123,-0.423 0.109,-0.41 0.098,-0.395L0.055,-0.448C0.072,-0.471 0.093,-0.488 0.12,-0.501C0.147,-0.513 0.173,-0.519 0.199,-0.519C0.228,-0.519 0.252,-0.514 0.272,-0.505C0.291,-0.496 0.307,-0.482 0.319,-0.464C0.331,-0.446 0.339,-0.424 0.345,-0.398C0.349,-0.371 0.352,-0.341 0.352,-0.308L0.352,-0.105C0.352,-0.088 0.353,-0.069 0.354,-0.049C0.355,-0.028 0.357,-0.012 0.359,-0L0.289,-0ZM0.276,-0.247L0.239,-0.247C0.224,-0.247 0.209,-0.246 0.195,-0.243C0.18,-0.24 0.167,-0.235 0.156,-0.228C0.145,-0.22 0.136,-0.209 0.129,-0.196C0.122,-0.183 0.118,-0.166 0.118,-0.145C0.118,-0.114 0.125,-0.092 0.138,-0.078C0.151,-0.063 0.167,-0.056 0.184,-0.056C0.201,-0.056 0.216,-0.061 0.228,-0.072C0.239,-0.082 0.249,-0.095 0.256,-0.111C0.263,-0.127 0.269,-0.145 0.272,-0.164C0.275,-0.183 0.276,-0.201 0.276,-0.218L0.276,-0.247Z" style="fill:rgb(108,135,156);fill-rule:nonzero;"/>
                    </g>
                    <g transform="matrix(132.656,0,0,155.719,3375.6,1269.72)">
                        <path d="M0.156,-0.502L0.156,-0.424L0.158,-0.424C0.166,-0.451 0.179,-0.474 0.197,-0.492C0.214,-0.51 0.24,-0.519 0.275,-0.519C0.3,-0.519 0.323,-0.512 0.343,-0.499C0.363,-0.485 0.38,-0.466 0.394,-0.442C0.407,-0.418 0.418,-0.39 0.425,-0.357C0.432,-0.323 0.435,-0.288 0.435,-0.249C0.435,-0.21 0.432,-0.175 0.425,-0.142C0.418,-0.109 0.408,-0.081 0.395,-0.058C0.381,-0.035 0.364,-0.016 0.344,-0.003C0.324,0.01 0.301,0.017 0.275,0.017C0.246,0.017 0.221,0.009 0.201,-0.009C0.181,-0.026 0.167,-0.047 0.16,-0.073L0.158,-0.073L0.158,0.24L0.073,0.24L0.073,-0.502L0.156,-0.502ZM0.156,-0.252C0.156,-0.225 0.158,-0.199 0.162,-0.176C0.166,-0.152 0.172,-0.131 0.181,-0.114C0.189,-0.097 0.199,-0.083 0.211,-0.073C0.223,-0.063 0.237,-0.058 0.253,-0.058C0.27,-0.058 0.284,-0.063 0.296,-0.073C0.307,-0.083 0.317,-0.097 0.325,-0.114C0.332,-0.131 0.338,-0.152 0.342,-0.176C0.345,-0.199 0.347,-0.225 0.347,-0.252C0.347,-0.279 0.345,-0.304 0.342,-0.328C0.338,-0.351 0.332,-0.372 0.325,-0.389C0.317,-0.406 0.307,-0.42 0.296,-0.43C0.284,-0.44 0.27,-0.445 0.253,-0.445C0.237,-0.445 0.223,-0.44 0.211,-0.43C0.198,-0.42 0.188,-0.406 0.18,-0.389C0.172,-0.372 0.166,-0.351 0.162,-0.328C0.158,-0.304 0.156,-0.279 0.156,-0.252Z" style="fill:rgb(108,135,156);fill-rule:nonzero;"/>
                    </g>
                    <g transform="matrix(132.656,0,0,155.719,3439.27,1269.72)">
                        <path d="M0.159,-0L0.073,-0L0.073,-0.756L0.159,-0.756L0.159,-0.417L0.161,-0.417C0.17,-0.445 0.185,-0.469 0.206,-0.489C0.227,-0.509 0.254,-0.519 0.285,-0.519C0.312,-0.519 0.334,-0.513 0.351,-0.502C0.368,-0.491 0.381,-0.476 0.39,-0.457C0.399,-0.438 0.405,-0.417 0.408,-0.393C0.411,-0.369 0.413,-0.345 0.413,-0.32L0.413,-0L0.327,-0L0.327,-0.32C0.327,-0.334 0.326,-0.348 0.325,-0.363C0.324,-0.378 0.321,-0.391 0.316,-0.403C0.311,-0.415 0.303,-0.425 0.294,-0.432C0.285,-0.439 0.272,-0.443 0.256,-0.443C0.242,-0.443 0.229,-0.439 0.217,-0.432C0.205,-0.424 0.195,-0.413 0.186,-0.4C0.177,-0.386 0.171,-0.37 0.166,-0.351C0.161,-0.332 0.159,-0.311 0.159,-0.288L0.159,-0Z" style="fill:rgb(108,135,156);fill-rule:nonzero;"/>
                    </g>
                    <g transform="matrix(132.656,0,0,155.719,3503.21,1269.72)">
                        <path d="M0.171,-0.053C0.171,-0.036 0.166,-0.021 0.155,-0.01C0.143,0.001 0.13,0.007 0.114,0.007C0.098,0.007 0.085,0.001 0.074,-0.01C0.063,-0.021 0.058,-0.036 0.058,-0.053C0.058,-0.07 0.063,-0.084 0.074,-0.096C0.085,-0.108 0.098,-0.114 0.114,-0.114C0.13,-0.114 0.143,-0.108 0.155,-0.096C0.166,-0.084 0.171,-0.07 0.171,-0.053Z" style="fill:rgb(108,135,156);fill-rule:nonzero;"/>
                    </g>
                </g>
            </g>
        </g>
    </g>
</svg>
